<svg width="173" height="179" viewBox="0 0 173 179" fill="none" xmlns="http://www.w3.org/2000/svg">
<g filter="url(#filter0_d_216_3608)">
<mask id="path-1-inside-1_216_3608" fill="white">
<path d="M60.2287 68.1485C64.5358 68.1485 68.8429 68.7043 72.8722 69.8853C76.9709 70.9968 80.7918 72.6641 84.3348 74.6787C87.8083 76.6934 91.0734 79.1943 93.9911 82.112C96.9088 85.0298 99.4098 88.2254 101.424 91.7683C103.508 95.3113 105.106 99.2016 106.218 103.231C107.329 107.26 107.885 111.498 107.885 115.874C107.885 120.251 107.329 124.489 106.218 128.518C105.106 132.547 103.439 136.368 101.424 139.911C99.4098 143.385 96.9088 146.58 93.9911 149.498C91.0734 152.346 87.8083 154.917 84.2653 157.001C80.7918 159.085 76.9709 160.683 72.8722 161.794C68.8429 162.906 64.6053 163.461 60.2287 163.461C55.8521 163.461 51.5449 162.906 47.5851 161.794C43.5559 160.683 39.735 159.085 36.192 157.001C32.6491 154.917 29.4534 152.416 26.5357 149.567C23.6874 146.719 21.117 143.454 19.1024 139.981C17.0183 136.507 15.4205 132.686 14.309 128.657C13.1975 124.628 12.6417 120.39 12.6417 116.013C12.6417 111.637 13.1975 107.33 14.309 103.37C15.4205 99.3406 17.0183 95.5197 19.1024 91.9768C21.1865 88.4338 23.6874 85.1687 26.5357 82.251C29.384 79.3332 32.6491 76.9018 36.1226 74.8177C39.6655 72.803 43.4864 71.1357 47.5157 70.0242C51.6144 68.7738 55.8521 68.1485 60.2287 68.1485ZM60.2287 60.5068C55.0879 60.5068 50.225 61.2015 45.501 62.5215C40.7771 63.8414 36.4005 65.7171 32.3017 68.0791C28.203 70.4411 24.4516 73.3588 21.117 76.6933C17.7825 80.0974 14.8647 83.7793 12.5028 87.9475C10.0713 92.0462 8.26509 96.4923 6.94516 101.147C5.62523 105.871 5 110.734 5 115.874C5 120.946 5.62523 125.878 6.94516 130.602C8.26509 135.326 10.0713 139.703 12.5028 143.732C14.9342 147.831 17.7825 151.513 21.117 154.847C24.4516 158.182 28.203 161.099 32.3017 163.461C36.4005 165.893 40.7771 167.699 45.501 169.019C50.225 170.339 55.0879 170.964 60.2287 170.964C65.3 170.964 70.1629 170.339 74.8868 169.019C79.6108 167.699 83.9874 165.893 88.0861 163.461C92.1849 161.03 95.9363 158.182 99.2708 154.847C102.675 151.513 105.523 147.761 107.885 143.732C110.247 139.633 112.123 135.257 113.443 130.602C114.763 125.878 115.457 121.015 115.457 115.874C115.457 110.803 114.763 105.871 113.443 101.147C112.123 96.4228 110.247 92.0462 107.885 87.9475C105.523 83.8488 102.605 80.0974 99.2708 76.6933C95.8668 73.2893 92.1849 70.4411 88.0861 68.0791C83.9874 65.7171 79.6108 63.8414 74.8868 62.5215C70.1629 61.2015 65.3 60.5068 60.2287 60.5068Z"/>
</mask>
<path d="M60.2287 68.1485C64.5358 68.1485 68.8429 68.7043 72.8722 69.8853C76.9709 70.9968 80.7918 72.6641 84.3348 74.6787C87.8083 76.6934 91.0734 79.1943 93.9911 82.112C96.9088 85.0298 99.4098 88.2254 101.424 91.7683C103.508 95.3113 105.106 99.2016 106.218 103.231C107.329 107.26 107.885 111.498 107.885 115.874C107.885 120.251 107.329 124.489 106.218 128.518C105.106 132.547 103.439 136.368 101.424 139.911C99.4098 143.385 96.9088 146.58 93.9911 149.498C91.0734 152.346 87.8083 154.917 84.2653 157.001C80.7918 159.085 76.9709 160.683 72.8722 161.794C68.8429 162.906 64.6053 163.461 60.2287 163.461C55.8521 163.461 51.5449 162.906 47.5851 161.794C43.5559 160.683 39.735 159.085 36.192 157.001C32.6491 154.917 29.4534 152.416 26.5357 149.567C23.6874 146.719 21.117 143.454 19.1024 139.981C17.0183 136.507 15.4205 132.686 14.309 128.657C13.1975 124.628 12.6417 120.39 12.6417 116.013C12.6417 111.637 13.1975 107.33 14.309 103.37C15.4205 99.3406 17.0183 95.5197 19.1024 91.9768C21.1865 88.4338 23.6874 85.1687 26.5357 82.251C29.384 79.3332 32.6491 76.9018 36.1226 74.8177C39.6655 72.803 43.4864 71.1357 47.5157 70.0242C51.6144 68.7738 55.8521 68.1485 60.2287 68.1485ZM60.2287 60.5068C55.0879 60.5068 50.225 61.2015 45.501 62.5215C40.7771 63.8414 36.4005 65.7171 32.3017 68.0791C28.203 70.4411 24.4516 73.3588 21.117 76.6933C17.7825 80.0974 14.8647 83.7793 12.5028 87.9475C10.0713 92.0462 8.26509 96.4923 6.94516 101.147C5.62523 105.871 5 110.734 5 115.874C5 120.946 5.62523 125.878 6.94516 130.602C8.26509 135.326 10.0713 139.703 12.5028 143.732C14.9342 147.831 17.7825 151.513 21.117 154.847C24.4516 158.182 28.203 161.099 32.3017 163.461C36.4005 165.893 40.7771 167.699 45.501 169.019C50.225 170.339 55.0879 170.964 60.2287 170.964C65.3 170.964 70.1629 170.339 74.8868 169.019C79.6108 167.699 83.9874 165.893 88.0861 163.461C92.1849 161.03 95.9363 158.182 99.2708 154.847C102.675 151.513 105.523 147.761 107.885 143.732C110.247 139.633 112.123 135.257 113.443 130.602C114.763 125.878 115.457 121.015 115.457 115.874C115.457 110.803 114.763 105.871 113.443 101.147C112.123 96.4228 110.247 92.0462 107.885 87.9475C105.523 83.8488 102.605 80.0974 99.2708 76.6933C95.8668 73.2893 92.1849 70.4411 88.0861 68.0791C83.9874 65.7171 79.6108 63.8414 74.8868 62.5215C70.1629 61.2015 65.3 60.5068 60.2287 60.5068Z" fill="white" stroke="white" stroke-width="3" mask="url(#path-1-inside-1_216_3608)"/>
<mask id="path-2-inside-2_216_3608" fill="white">
<path d="M60.229 94.7555C63.1467 94.7555 65.7171 95.2418 68.1485 96.3533C70.58 97.4648 72.5946 98.8542 74.3314 100.73C76.0681 102.606 77.4575 104.829 78.4301 107.399C79.4722 110.039 79.9585 112.818 79.9585 115.805C79.9585 118.862 79.4722 121.64 78.4301 124.211C77.4575 126.781 76.0681 128.935 74.3314 130.81C72.5946 132.617 70.58 134.076 68.1485 135.118C65.7866 136.16 63.1467 136.646 60.229 136.646C57.3112 136.646 54.7408 136.16 52.3789 135.118C49.9474 134.076 47.9328 132.617 46.196 130.81C44.4593 128.935 43.0699 126.781 42.0973 124.211C41.0552 121.64 40.5689 118.862 40.5689 115.805C40.5689 112.748 41.0552 110.039 42.0973 107.399C43.0699 104.829 44.4593 102.606 46.196 100.73C47.9328 98.8542 49.9474 97.3953 52.3789 96.3533C54.7408 95.2418 57.3112 94.7555 60.229 94.7555ZM60.229 87.1138C56.2692 87.1138 52.5873 87.8779 49.2527 89.3368C45.9181 90.7957 43.0699 92.8798 40.6384 95.4502C38.207 98.0206 36.3313 101.077 34.9419 104.62C33.6219 108.094 32.9272 111.845 32.9272 115.805C32.9272 119.834 33.6219 123.516 34.9419 126.99C36.2618 130.463 38.207 133.45 40.6384 136.09C43.0699 138.661 45.9181 140.675 49.2527 142.134C52.5873 143.593 56.1997 144.357 60.229 144.357C64.1888 144.357 67.8707 143.593 71.2052 142.134C74.5398 140.675 77.4575 138.661 79.889 136.09C82.3204 133.52 84.1961 130.463 85.5855 126.99C86.9055 123.516 87.6002 119.765 87.6002 115.805C87.6002 111.845 86.9055 108.163 85.5855 104.62C84.2656 101.147 82.3204 98.09 79.889 95.4502C77.4575 92.8798 74.5398 90.7957 71.2052 89.3368C67.8707 87.8779 64.1888 87.1138 60.229 87.1138Z"/>
</mask>
<path d="M60.229 94.7555C63.1467 94.7555 65.7171 95.2418 68.1485 96.3533C70.58 97.4648 72.5946 98.8542 74.3314 100.73C76.0681 102.606 77.4575 104.829 78.4301 107.399C79.4722 110.039 79.9585 112.818 79.9585 115.805C79.9585 118.862 79.4722 121.64 78.4301 124.211C77.4575 126.781 76.0681 128.935 74.3314 130.81C72.5946 132.617 70.58 134.076 68.1485 135.118C65.7866 136.16 63.1467 136.646 60.229 136.646C57.3112 136.646 54.7408 136.16 52.3789 135.118C49.9474 134.076 47.9328 132.617 46.196 130.81C44.4593 128.935 43.0699 126.781 42.0973 124.211C41.0552 121.64 40.5689 118.862 40.5689 115.805C40.5689 112.748 41.0552 110.039 42.0973 107.399C43.0699 104.829 44.4593 102.606 46.196 100.73C47.9328 98.8542 49.9474 97.3953 52.3789 96.3533C54.7408 95.2418 57.3112 94.7555 60.229 94.7555ZM60.229 87.1138C56.2692 87.1138 52.5873 87.8779 49.2527 89.3368C45.9181 90.7957 43.0699 92.8798 40.6384 95.4502C38.207 98.0206 36.3313 101.077 34.9419 104.62C33.6219 108.094 32.9272 111.845 32.9272 115.805C32.9272 119.834 33.6219 123.516 34.9419 126.99C36.2618 130.463 38.207 133.45 40.6384 136.09C43.0699 138.661 45.9181 140.675 49.2527 142.134C52.5873 143.593 56.1997 144.357 60.229 144.357C64.1888 144.357 67.8707 143.593 71.2052 142.134C74.5398 140.675 77.4575 138.661 79.889 136.09C82.3204 133.52 84.1961 130.463 85.5855 126.99C86.9055 123.516 87.6002 119.765 87.6002 115.805C87.6002 111.845 86.9055 108.163 85.5855 104.62C84.2656 101.147 82.3204 98.09 79.889 95.4502C77.4575 92.8798 74.5398 90.7957 71.2052 89.3368C67.8707 87.8779 64.1888 87.1138 60.229 87.1138Z" fill="white" stroke="white" stroke-width="3" mask="url(#path-2-inside-2_216_3608)"/>
<mask id="path-3-inside-3_216_3608" fill="white">
<path d="M128.796 5V12.6417C129.907 12.6417 131.019 12.7112 132.13 12.8501C142.967 14.1006 152.693 21.3949 157.556 31.746C159.849 36.6089 160.752 41.7496 160.335 46.6125C159.432 45.2926 158.459 44.1116 157.278 43.0696C154.083 40.1518 149.637 38.4151 145.19 38.4151C140.605 38.4151 136.437 40.1518 133.45 43.278C128.309 48.8356 128.587 55.991 128.865 61.2707L128.934 62.1738C129.212 70.5102 127.128 79.4024 123.099 87.6693C122.057 85.3768 120.945 83.1538 119.695 81.0002C117.402 77.1099 114.763 73.3585 111.775 70.0239C111.706 69.6071 111.636 69.2598 111.567 68.843L111.498 68.4261C110.525 62.7296 108.719 57.5193 107.051 52.3786C102.605 39.1792 100.452 31.3291 107.677 22.298C112.47 16.2541 120.598 12.5028 128.865 12.5028L128.796 5ZM128.796 5C118.445 5 108.094 9.58502 101.633 17.713C87.5998 35.2889 100.73 51.6144 103.925 69.885C104.134 71.1355 104.342 72.3859 104.551 73.6364C107.816 77.1099 110.664 80.8613 113.026 84.96C115.666 89.4755 117.68 94.4079 119.139 99.5487C119.695 101.494 120.181 103.508 120.459 105.593C130.81 93.2964 136.993 77.0404 136.437 61.9654C136.229 57.2415 135.743 51.9617 138.938 48.5577C140.536 46.821 142.829 46.0568 145.121 46.0568C147.622 46.0568 150.192 46.9599 152.068 48.6966C155.68 51.9617 156.861 57.2415 156.167 62.1044C155.958 63.2853 155.75 64.6053 156.514 65.5779C156.931 66.0641 157.487 66.2726 158.042 66.2726C159.501 66.2726 161.308 64.8832 162.211 63.4938C177.772 39.9434 159.918 8.40403 132.964 5.20841C131.644 5.06947 130.185 5 128.796 5Z"/>
</mask>
<path d="M128.796 5V12.6417C129.907 12.6417 131.019 12.7112 132.13 12.8501C142.967 14.1006 152.693 21.3949 157.556 31.746C159.849 36.6089 160.752 41.7496 160.335 46.6125C159.432 45.2926 158.459 44.1116 157.278 43.0696C154.083 40.1518 149.637 38.4151 145.19 38.4151C140.605 38.4151 136.437 40.1518 133.45 43.278C128.309 48.8356 128.587 55.991 128.865 61.2707L128.934 62.1738C129.212 70.5102 127.128 79.4024 123.099 87.6693C122.057 85.3768 120.945 83.1538 119.695 81.0002C117.402 77.1099 114.763 73.3585 111.775 70.0239C111.706 69.6071 111.636 69.2598 111.567 68.843L111.498 68.4261C110.525 62.7296 108.719 57.5193 107.051 52.3786C102.605 39.1792 100.452 31.3291 107.677 22.298C112.47 16.2541 120.598 12.5028 128.865 12.5028L128.796 5ZM128.796 5C118.445 5 108.094 9.58502 101.633 17.713C87.5998 35.2889 100.73 51.6144 103.925 69.885C104.134 71.1355 104.342 72.3859 104.551 73.6364C107.816 77.1099 110.664 80.8613 113.026 84.96C115.666 89.4755 117.68 94.4079 119.139 99.5487C119.695 101.494 120.181 103.508 120.459 105.593C130.81 93.2964 136.993 77.0404 136.437 61.9654C136.229 57.2415 135.743 51.9617 138.938 48.5577C140.536 46.821 142.829 46.0568 145.121 46.0568C147.622 46.0568 150.192 46.9599 152.068 48.6966C155.68 51.9617 156.861 57.2415 156.167 62.1044C155.958 63.2853 155.75 64.6053 156.514 65.5779C156.931 66.0641 157.487 66.2726 158.042 66.2726C159.501 66.2726 161.308 64.8832 162.211 63.4938C177.772 39.9434 159.918 8.40403 132.964 5.20841C131.644 5.06947 130.185 5 128.796 5Z" fill="white" stroke="white" stroke-width="3" mask="url(#path-3-inside-3_216_3608)"/>
</g>
<defs>
<filter id="filter0_d_216_3608" x="1" y="5" width="171" height="173.964" filterUnits="userSpaceOnUse" color-interpolation-filters="sRGB">
<feFlood flood-opacity="0" result="BackgroundImageFix"/>
<feColorMatrix in="SourceAlpha" type="matrix" values="0 0 0 0 0 0 0 0 0 0 0 0 0 0 0 0 0 0 127 0" result="hardAlpha"/>
<feOffset dy="4"/>
<feGaussianBlur stdDeviation="2"/>
<feComposite in2="hardAlpha" operator="out"/>
<feColorMatrix type="matrix" values="0 0 0 0 0 0 0 0 0 0 0 0 0 0 0 0 0 0 0.25 0"/>
<feBlend mode="normal" in2="BackgroundImageFix" result="effect1_dropShadow_216_3608"/>
<feBlend mode="normal" in="SourceGraphic" in2="effect1_dropShadow_216_3608" result="shape"/>
</filter>
</defs>
</svg>
