<svg width="498" height="107" viewBox="0 0 498 107" fill="none" xmlns="http://www.w3.org/2000/svg">
<g clip-path="url(#clip0_216_3609)">
<g filter="url(#filter0_d_216_3609)">
<path d="M102.3 53.2001C102.3 59.8001 101 66.1001 98.4 72.0001C95.8 77.9001 92.3 83.0001 87.8 87.3001C83.3 91.6001 78.1 95.1001 72.2 97.6001C66.3 100.1 59.9 101.4 53.2 101.4C46.5 101.4 40.1 100.1 34.1 97.6001C28.1 95.1001 22.9 91.7001 18.4 87.3001C14 83.0001 10.5 77.9001 7.9 72.1001C5.3 66.2001 4 60.0001 4 53.2001C4 46.4001 5.3 40.2001 7.9 34.3001C10.5 28.4001 14 23.3001 18.5 19.0001C23 14.7001 28.2 11.3001 34.2 8.8001C40.2 6.3001 46.5 5.1001 53.3 5.1001C60 5.1001 66.3 6.3001 72.3 8.8001C78.2 11.3001 83.5 14.7001 87.9 19.1001C92.4 23.5001 95.9 28.6001 98.5 34.4001C101 40.2001 102.3 46.5001 102.3 53.2001ZM84.3 53.2001C84.3 49.0001 83.5 45.0001 81.9 41.2001C80.3 37.5001 78 34.2001 75.2 31.3001C72.4 28.5001 69.1 26.2001 65.3 24.6001C61.5 22.9001 57.5 22.1001 53.2 22.1001C48.9 22.1001 44.8 22.9001 41 24.6001C37.2 26.3001 33.9 28.5001 31.1 31.3001C28.3 34.1001 26 37.4001 24.4 41.2001C22.8 45.0001 22 49.0001 22 53.2001C22 57.4001 22.8 61.4001 24.4 65.1001C26 68.9001 28.3 72.2001 31.1 75.0001C33.9 77.8001 37.2 80.1001 41 81.7001C44.8 83.4001 48.9 84.2001 53.2 84.2001C57.5 84.2001 61.5 83.4001 65.3 81.7001C69.1 80.0001 72.4 77.8001 75.2 75.0001C78 72.2001 80.3 68.9001 81.9 65.1001C83.5 61.4001 84.3 57.4001 84.3 53.2001Z" fill="white"/>
<path d="M201.4 75.3001C201.4 78.8001 200.6 82.1001 199.1 85.2001C197.6 88.3001 195.5 91.1001 192.8 93.5001C190.1 95.9001 186.9 97.8001 183.2 99.2001C179.5 100.6 175.4 101.3 170.9 101.3C166.9 101.3 163.3 101.1 160.1 100.6C156.9 100.1 153.9 99.4001 151.1 98.4001C148.3 97.4001 145.6 96.1001 143 94.5001C140.4 92.9001 137.7 91.0001 134.9 88.8001L147.7 76.0001C151.4 79.1001 155 81.3001 158.6 82.6001C162.2 83.9001 166 84.5001 170.2 84.5001C171.9 84.5001 173.5 84.2001 175 83.7001C176.5 83.2001 177.8 82.5001 178.9 81.7001C180 80.9001 180.9 79.8001 181.6 78.7001C182.3 77.5001 182.6 76.3001 182.6 74.9001C182.6 73.4001 182.3 72.1001 181.8 71.0001C181.3 69.8001 180.3 68.7001 178.9 67.6001C177.5 66.5001 175.6 65.4001 173.1 64.3001C170.6 63.2001 167.5 61.9001 163.6 60.5001C160.2 59.3001 156.9 57.9001 153.8 56.3001C150.7 54.7001 147.9 52.8001 145.6 50.6001C143.2 48.4001 141.3 45.7001 139.9 42.7001C138.5 39.7001 137.8 36.1001 137.8 32.0001C137.8 28.1001 138.6 24.4001 140.2 21.1001C141.8 17.8001 143.9 14.9001 146.7 12.6001C149.4 10.2001 152.7 8.4001 156.3 7.1001C160 5.8001 163.9 5.1001 168.2 5.1001C175.3 5.1001 181.3 6.0001 186.2 7.9001C191.1 9.8001 195.4 12.5001 199.2 16.0001L186.7 28.6001C184.4 26.4001 181.8 24.6001 178.9 23.4001C176 22.2001 172.7 21.6001 168.8 21.6001C167 21.6001 165.4 21.9001 163.9 22.4001C162.4 22.9001 161.1 23.7001 160 24.5001C158.9 25.4001 158 26.4001 157.4 27.6001C156.7 28.8001 156.4 30.1001 156.4 31.4001C156.4 32.9001 156.7 34.2001 157.3 35.4001C157.9 36.6001 159 37.8001 160.4 38.9001C161.9 40.0001 163.8 41.1001 166.3 42.3001C168.7 43.4001 171.8 44.6001 175.4 46.0001C180 47.6001 184 49.4001 187.3 51.3001C190.6 53.2001 193.3 55.4001 195.4 57.7001C197.5 60.0001 199 62.6001 200 65.5001C200.9 68.4001 201.4 71.6001 201.4 75.3001Z" fill="white"/>
<path d="M332.2 53.2002C332.2 59.8002 330.9 66.1002 328.3 72.0002C325.7 77.9002 322.2 83.0002 317.7 87.3002C313.2 91.6002 308 95.1002 302.1 97.6002C296.2 100.1 289.8 101.4 283.1 101.4C276.4 101.4 270 100.1 264 97.6002C258 95.1002 252.8 91.7002 248.3 87.3002C243.8 83.0002 240.3 77.9002 237.7 72.1002C235.1 66.3002 233.8 60.0002 233.8 53.3002C233.8 46.6002 235.1 40.3002 237.7 34.4002C240.3 28.5002 243.8 23.4002 248.3 19.1002C252.8 14.8002 258 11.4002 264 8.9002C270 6.4002 276.3 5.2002 283.1 5.2002C289.8 5.2002 296.1 6.4002 302.1 8.9002C308 11.4002 313.3 14.8002 317.7 19.2002C322.2 23.6002 325.7 28.7002 328.3 34.5002C330.9 40.2002 332.2 46.5002 332.2 53.2002ZM314.3 53.2002C314.3 49.0002 313.5 45.0002 311.9 41.2002C310.3 37.5002 308 34.2002 305.2 31.3002C302.4 28.5002 299.1 26.2002 295.3 24.6002C291.5 22.9002 287.5 22.1002 283.2 22.1002C278.9 22.1002 274.8 22.9002 271 24.6002C267.2 26.3002 263.9 28.5002 261.1 31.3002C258.3 34.1002 256 37.4002 254.4 41.2002C252.8 45.0002 252 49.0002 252 53.2002C252 57.4002 252.8 61.4002 254.4 65.1002C256 68.9002 258.3 72.2002 261.1 75.0002C263.9 77.8002 267.2 80.1002 271 81.7002C274.8 83.4002 278.9 84.2002 283.2 84.2002C287.5 84.2002 291.5 83.4002 295.3 81.7002C299.1 80.0002 302.4 77.8002 305.2 75.0002C308 72.2002 310.3 68.9002 311.9 65.1002C313.4 61.4002 314.3 57.4002 314.3 53.2002Z" fill="white"/>
<path d="M439.1 99.5999H419.3L412.7 78.4999C412 76.1999 411.1 74.0999 410.1 72.0999C409.1 70.1999 407.8 68.4999 406.3 67.0999C404.8 65.6999 403.1 64.5999 401 63.8999C399 63.0999 396.5 62.6999 393.8 62.6999H387.1V99.5999H369.4V6.9999L406 6.8999C409.9 6.8999 413.6 7.5999 417 8.8999C420.4 10.2999 423.3 12.0999 425.8 14.4999C428.3 16.8999 430.2 19.6999 431.6 22.9999C433 26.1999 433.7 29.7999 433.7 33.5999C433.7 36.2999 433.3 38.8999 432.4 41.4999C431.6 44.0999 430.4 46.3999 428.8 48.5999C427.3 50.7999 425.4 52.6999 423.3 54.2999C421.2 55.9999 418.9 57.1999 416.3 58.0999C419.2 59.1999 421.6 60.6999 423.4 62.7999C425.2 64.7999 426.7 67.2999 427.8 70.1999C428.3 71.4999 428.8 72.7999 429.3 74.0999C429.8 75.3999 430.2 76.7999 430.7 78.1999C431.2 79.5999 431.7 81.1999 432.3 82.7999C432.9 84.4999 433.5 86.2999 434.2 88.2999C435 90.8999 435.8 92.9999 436.6 94.8999C437.5 96.5999 438.3 98.1999 439.1 99.5999ZM415.7 34.7999C415.7 32.5999 415.3 30.6999 414.5 28.8999C413.7 27.0999 412.6 25.5999 411.2 24.2999C409.8 22.9999 408.2 21.9999 406.3 21.1999C404.4 20.4999 402.4 20.0999 400.2 20.0999H387.2V48.9999H400.2C402.4 48.9999 404.4 48.6999 406.3 47.9999C408.2 47.2999 409.8 46.3999 411.2 45.1999C412.6 43.9999 413.7 42.4999 414.5 40.6999C415.3 38.8999 415.7 36.9999 415.7 34.7999Z" fill="white"/>
<path d="M491.4 99.6H473.4V7H491.4V99.6Z" fill="white"/>
</g>
</g>
<defs>
<filter id="filter0_d_216_3609" x="0" y="5.1001" width="495.4" height="104.3" filterUnits="userSpaceOnUse" color-interpolation-filters="sRGB">
<feFlood flood-opacity="0" result="BackgroundImageFix"/>
<feColorMatrix in="SourceAlpha" type="matrix" values="0 0 0 0 0 0 0 0 0 0 0 0 0 0 0 0 0 0 127 0" result="hardAlpha"/>
<feOffset dy="4"/>
<feGaussianBlur stdDeviation="2"/>
<feComposite in2="hardAlpha" operator="out"/>
<feColorMatrix type="matrix" values="0 0 0 0 0 0 0 0 0 0 0 0 0 0 0 0 0 0 0.25 0"/>
<feBlend mode="normal" in2="BackgroundImageFix" result="effect1_dropShadow_216_3609"/>
<feBlend mode="normal" in="SourceGraphic" in2="effect1_dropShadow_216_3609" result="shape"/>
</filter>
<clipPath id="clip0_216_3609">
<rect width="498" height="107" fill="white"/>
</clipPath>
</defs>
</svg>
