<svg width="244" height="249" viewBox="0 0 244 249" fill="none" xmlns="http://www.w3.org/2000/svg">
<path d="M5 164.584C5 157.284 5.9 150.184 7.8 143.384C9.7 136.584 12.3 130.284 15.8 124.384C19.3 118.484 23.4 113.084 28.2 108.184C33 103.284 38.4 99.1838 44.3 95.7838C50.2 92.3838 56.5 89.6838 63.3 87.7838C70.1 85.8838 77.1 84.8838 84.5 84.8838C91.8 84.8838 98.8 85.8838 105.6 87.7838C112.4 89.6838 118.7 92.3838 124.6 95.7838C130.5 99.1838 135.9 103.384 140.7 108.184C145.6 113.084 149.7 118.384 153.1 124.384C156.5 130.284 159.2 136.684 161.1 143.384C163 150.184 164 157.184 164 164.584C164 171.884 163 178.984 161.1 185.784C159.2 192.584 156.5 198.884 153.1 204.684C149.7 210.584 145.5 215.884 140.7 220.684C135.8 225.484 130.5 229.684 124.6 233.084C118.7 236.584 112.4 239.184 105.6 241.084C98.8 242.984 91.8 243.884 84.5 243.884C77.1 243.884 70.1 242.984 63.3 241.084C56.5 239.184 50.2 236.584 44.3 233.084C38.4 229.584 33 225.484 28.2 220.684C23.4 215.884 19.2 210.484 15.8 204.684C12.3 198.784 9.7 192.484 7.8 185.784C5.9 178.984 5 171.884 5 164.584ZM45.2 164.484C45.2 170.284 46.2 175.584 48.1 180.584C50 185.584 52.8 189.884 56.3 193.684C59.8 197.384 63.9 200.284 68.7 202.384C73.5 204.484 78.7 205.584 84.5 205.584C90.2 205.584 95.5 204.484 100.3 202.384C105.1 200.284 109.3 197.384 112.8 193.684C116.3 189.984 119 185.584 121 180.584C122.9 175.584 123.9 170.184 123.9 164.484C123.9 158.784 122.9 153.484 121 148.384C119.1 143.384 116.3 138.984 112.8 135.184C109.3 131.484 105.1 128.484 100.3 126.384C95.5 124.284 90.2 123.184 84.5 123.184C78.8 123.184 73.5 124.284 68.7 126.384C63.9 128.484 59.8 131.484 56.3 135.184C52.8 138.884 50.1 143.284 48.1 148.384C46.2 153.384 45.2 158.784 45.2 164.484Z" fill="url(#paint0_linear_254_3587)"/>
<path d="M231.4 89.1836C229.5 91.9836 225.3 94.6836 223.2 92.1836C222.2 90.7836 222.4 88.8836 222.7 87.1836C223.7 80.1836 222 72.5836 216.8 67.8836C211.6 63.1836 202.7 62.5836 197.9 67.6836C193.3 72.5836 194 80.1836 194.3 86.9836C195.1 108.684 186.2 132.084 171.3 149.784C170.8 146.884 170.2 143.984 169.4 141.084C167.3 133.684 164.3 126.584 160.6 120.084C157.2 114.184 153.1 108.684 148.4 103.784C148.1 101.984 147.8 100.184 147.5 98.3836C143 72.0836 124 48.5836 144.2 23.2836C154.8 9.88358 172.6 3.28358 189.4 5.38358C228.1 9.88358 253.8 55.2836 231.4 89.1836Z" fill="url(#paint1_linear_254_3587)"/>
<defs>
<linearGradient id="paint0_linear_254_3587" x1="-100.048" y1="361.537" x2="365.014" y2="-132.141" gradientUnits="userSpaceOnUse">
<stop stop-color="#FF9500"/>
<stop offset="0.0532545" stop-color="#EA0EA2"/>
<stop offset="0.1638" stop-color="#B233B0"/>
<stop offset="0.3204" stop-color="#5B6EC6"/>
<stop offset="0.4716" stop-color="#00AADD"/>
<stop offset="0.7704" stop-color="#FFD400"/>
<stop offset="1" stop-color="#FF001C"/>
</linearGradient>
<linearGradient id="paint1_linear_254_3587" x1="65.9326" y1="256.917" x2="475.713" y2="-57.5216" gradientUnits="userSpaceOnUse">
<stop stop-color="#FF9500"/>
<stop offset="0.0532545" stop-color="#EA0EA2"/>
<stop offset="0.1638" stop-color="#B233B0"/>
<stop offset="0.3204" stop-color="#5B6EC6"/>
<stop offset="0.4716" stop-color="#00AADD"/>
<stop offset="0.7704" stop-color="#FFD400"/>
<stop offset="1" stop-color="#FF001C"/>
</linearGradient>
</defs>
</svg>
