<svg width="225" height="47" viewBox="0 0 225 47" fill="none" xmlns="http://www.w3.org/2000/svg">
<path d="M47.7612 23.5965C47.7612 26.5607 47.1848 29.3709 46.0322 31.9886C44.8796 34.6063 43.3044 36.8776 41.3065 38.8024C39.3086 40.7272 37.0034 42.267 34.3523 43.3834C31.7013 44.4998 28.8966 45.0772 25.8998 45.0772C22.903 45.0772 20.0983 44.4998 17.4088 43.3834C14.7578 42.267 12.4141 40.7272 10.4163 38.8024C8.41838 36.8776 6.84313 34.6063 5.69051 31.9886C4.57631 29.4094 4 26.5992 4 23.5965C4 20.5938 4.57631 17.7836 5.72893 15.1659C6.88155 12.5481 8.4568 10.2769 10.4547 8.35207C12.4525 6.38878 14.7578 4.88743 17.4472 3.77105C20.0983 2.69316 22.9414 2.11572 25.8998 2.11572C28.8966 2.11572 31.7013 2.65467 34.3523 3.77105C37.0034 4.88743 39.3086 6.38878 41.3065 8.35207C43.3044 10.3154 44.8796 12.5866 46.0322 15.1659C47.1848 17.7836 47.7612 20.5938 47.7612 23.5965ZM39.7697 23.5965C39.7697 21.7102 39.4239 19.9009 38.6939 18.2455C37.9639 16.5902 36.9649 15.1274 35.7355 13.857C34.4676 12.5866 33.0076 11.5857 31.3171 10.8543C29.6266 10.1229 27.8208 9.73793 25.9382 9.73793C24.0172 9.73793 22.2114 10.1229 20.5209 10.8543C18.8304 11.5857 17.3704 12.5866 16.1025 13.857C14.8346 15.1274 13.8357 16.5902 13.1441 18.2455C12.4141 19.9009 12.0683 21.7102 12.0683 23.5965C12.0683 25.4443 12.4141 27.2536 13.1441 28.9089C13.8741 30.6027 14.8731 32.0656 16.1025 33.336C17.3704 34.6063 18.8304 35.6072 20.5209 36.3386C22.2114 37.0701 24.0172 37.455 25.9382 37.455C27.8208 37.455 29.6266 37.0701 31.3171 36.3386C33.0076 35.6072 34.4676 34.6063 35.7355 33.336C37.0034 32.0656 38.0023 30.6027 38.6939 28.9089C39.4239 27.2151 39.7697 25.4443 39.7697 23.5965Z" fill="black"/>
<path d="M91.9065 33.4127C91.9065 34.9526 91.5607 36.4539 90.9076 37.8397C90.2544 39.2256 89.2939 40.4575 88.1029 41.5354C86.9118 42.6133 85.4518 43.4602 83.7998 44.1146C82.1477 44.769 80.3419 45.077 78.344 45.077C76.5383 45.077 74.963 44.9615 73.503 44.769C72.0815 44.5765 70.7367 44.2301 69.4688 43.7681C68.201 43.3062 67.0099 42.7287 65.8573 42.0358C64.7047 41.3429 63.5136 40.4575 62.2842 39.4566L67.9704 33.7207C69.6225 35.1065 71.2362 36.0689 72.8114 36.6464C74.3867 37.2238 76.1156 37.4933 77.9598 37.4933C78.7282 37.4933 79.4198 37.3778 80.1114 37.1468C80.7645 36.9158 81.3793 36.6079 81.8787 36.2229C82.3782 35.838 82.7624 35.376 83.0698 34.8756C83.3771 34.3751 83.4924 33.7977 83.4924 33.1817C83.4924 32.5273 83.3771 31.9499 83.1466 31.4109C82.9161 30.9105 82.4935 30.41 81.8403 29.9096C81.2256 29.4091 80.3419 28.9472 79.2661 28.4467C78.1519 27.9463 76.7688 27.3688 75.0398 26.7529C73.5414 26.214 72.0815 25.5595 70.6599 24.8666C69.2767 24.1737 68.0473 23.2883 67.0099 22.2874C65.9726 21.2865 65.1273 20.1316 64.4742 18.7842C63.821 17.4369 63.5136 15.8586 63.5136 14.0107C63.5136 12.2399 63.8594 10.6231 64.5894 9.16025C65.281 7.65891 66.2415 6.42704 67.471 5.34915C68.7004 4.30976 70.122 3.46285 71.7741 2.88541C73.4262 2.30797 75.1551 2 77.0761 2C80.2266 2 82.9161 2.42346 85.0676 3.23187C87.2192 4.04029 89.1787 5.27216 90.8307 6.85049L85.2597 12.4709C84.2224 11.47 83.0698 10.7001 81.8019 10.1611C80.534 9.6222 79.0356 9.35273 77.3067 9.35273C76.4998 9.35273 75.7698 9.46822 75.1167 9.69919C74.4635 9.93017 73.8872 10.2766 73.3878 10.6616C72.8883 11.0466 72.5041 11.5085 72.2351 12.0474C71.9278 12.5864 71.8125 13.1253 71.8125 13.7413C71.8125 14.3957 71.9662 14.9731 72.2351 15.5121C72.5041 16.051 72.9651 16.5515 73.6183 17.0519C74.2714 17.5524 75.1551 18.0528 76.2309 18.5533C77.3067 19.0537 78.6514 19.5927 80.2651 20.1701C82.3398 20.9015 84.1071 21.6714 85.5671 22.5569C87.0655 23.4038 88.2566 24.3662 89.1787 25.4056C90.1007 26.4449 90.7923 27.5998 91.2534 28.9087C91.676 30.333 91.9065 31.7959 91.9065 33.4127Z" fill="black"/>
<path d="M150.152 23.5961C150.152 26.5603 149.576 29.3705 148.423 31.9882C147.271 34.6059 145.696 36.8772 143.698 38.802C141.7 40.7268 139.395 42.2666 136.744 43.383C134.093 44.4994 131.288 45.0768 128.291 45.0768C125.294 45.0768 122.489 44.4994 119.8 43.383C117.149 42.2666 114.805 40.7268 112.807 38.802C110.81 36.8772 109.234 34.6059 108.082 31.9882C106.929 29.3705 106.353 26.5988 106.353 23.5961C106.353 20.5934 106.929 17.7832 108.082 15.1654C109.234 12.5477 110.81 10.2765 112.807 8.35166C114.805 6.42686 117.149 4.88702 119.8 3.80914C122.451 2.69275 125.294 2.15381 128.291 2.15381C131.288 2.15381 134.093 2.69275 136.744 3.80914C139.395 4.92552 141.7 6.42686 143.698 8.39016C145.696 10.3535 147.271 12.6247 148.423 15.2039C149.576 17.7832 150.152 20.5934 150.152 23.5961ZM142.122 23.5961C142.122 21.7098 141.777 19.9005 141.047 18.2451C140.317 16.5898 139.318 15.127 138.088 13.8566C136.82 12.5862 135.36 11.5853 133.67 10.8539C131.979 10.1225 130.174 9.73751 128.291 9.73751C126.37 9.73751 124.564 10.1225 122.874 10.8539C121.183 11.5853 119.723 12.5862 118.455 13.8566C117.187 15.127 116.188 16.5898 115.497 18.2451C114.767 19.9005 114.421 21.7098 114.421 23.5961C114.421 25.4439 114.767 27.2532 115.497 28.9085C116.227 30.6023 117.226 32.0652 118.455 33.3355C119.723 34.6059 121.183 35.6068 122.874 36.3382C124.564 37.0697 126.37 37.4546 128.291 37.4546C130.174 37.4546 131.979 37.0697 133.67 36.3382C135.36 35.6068 136.82 34.6059 138.088 33.3355C139.356 32.0652 140.355 30.6023 141.047 28.9085C141.777 27.2147 142.122 25.4439 142.122 23.5961Z" fill="black"/>
<path d="M197.717 44.2685H188.919L185.999 34.837C185.691 33.7976 185.307 32.8737 184.846 31.9883C184.385 31.1414 183.809 30.3715 183.156 29.7555C182.502 29.1396 181.734 28.6391 180.812 28.2927C179.89 27.9462 178.814 27.7922 177.585 27.7922H174.588V44.23H166.673V2.96232L182.963 2.92383C184.731 2.92383 186.344 3.2318 187.843 3.84773C189.341 4.46367 190.648 5.27208 191.762 6.34997C192.876 7.42786 193.721 8.65973 194.336 10.1226C194.951 11.5854 195.258 13.1253 195.258 14.8191C195.258 16.0125 195.066 17.2058 194.682 18.3222C194.298 19.4771 193.76 20.5165 193.107 21.4789C192.415 22.4413 191.608 23.2882 190.686 24.0581C189.764 24.7895 188.727 25.367 187.574 25.7519C188.88 26.2524 189.918 26.9453 190.763 27.8307C191.57 28.7546 192.223 29.8325 192.722 31.1029C192.953 31.6803 193.183 32.2578 193.375 32.8737C193.568 33.4511 193.798 34.0671 194.029 34.7215C194.259 35.3759 194.49 36.0304 194.759 36.8003C195.028 37.5317 195.297 38.3786 195.604 39.264C195.988 40.4189 196.334 41.3813 196.68 42.1897C196.987 42.9596 197.371 43.6526 197.717 44.2685ZM187.305 15.358C187.305 14.3956 187.113 13.5102 186.767 12.7018C186.421 11.8934 185.922 11.239 185.307 10.623C184.692 10.0456 183.962 9.58363 183.117 9.23717C182.272 8.9292 181.388 8.73672 180.389 8.73672H174.626V21.6329H180.389C181.35 21.6329 182.272 21.4789 183.117 21.2094C183.962 20.9014 184.692 20.478 185.307 19.939C185.922 19.4001 186.421 18.7072 186.767 17.9373C187.113 17.2058 187.305 16.3204 187.305 15.358Z" fill="black"/>
<path d="M221 44.2686H213.009V2.9624H221V44.2686Z" fill="black"/>
</svg>
