<svg width="39" height="39" viewBox="0 0 39 39" fill="none" xmlns="http://www.w3.org/2000/svg">
<path d="M19.5846 20.8623C20.4456 20.8623 21.1436 20.1644 21.1436 19.3034C21.1436 18.4424 20.4456 17.7444 19.5846 17.7444C18.7236 17.7444 18.0256 18.4424 18.0256 19.3034C18.0256 20.1644 18.7236 20.8623 19.5846 20.8623Z" stroke="#667080" stroke-width="3.11795" stroke-linecap="round" stroke-linejoin="round"/>
<path d="M19.5846 9.94949C20.4456 9.94949 21.1436 9.25151 21.1436 8.39052C21.1436 7.52952 20.4456 6.83154 19.5846 6.83154C18.7236 6.83154 18.0256 7.52952 18.0256 8.39052C18.0256 9.25151 18.7236 9.94949 19.5846 9.94949Z" stroke="#667080" stroke-width="3.11795" stroke-linecap="round" stroke-linejoin="round"/>
<path d="M19.5846 31.7752C20.4456 31.7752 21.1436 31.0772 21.1436 30.2162C21.1436 29.3552 20.4456 28.6572 19.5846 28.6572C18.7236 28.6572 18.0256 29.3552 18.0256 30.2162C18.0256 31.0772 18.7236 31.7752 19.5846 31.7752Z" stroke="#667080" stroke-width="3.11795" stroke-linecap="round" stroke-linejoin="round"/>
</svg>
